<?xml version="1.0" encoding="iso-8859-1"?>
<!-- Generator: Adobe Illustrator 19.0.0, SVG Export Plug-In . SVG Version: 6.00 Build 0)  -->
<svg version="1.1" id="Capa_1" xmlns="http://www.w3.org/2000/svg" xmlns:xlink="http://www.w3.org/1999/xlink" x="0px" y="0px"
	 viewBox="0 0 512 512" style="enable-background:new 0 0 512 512;" xml:space="preserve">
<g>
	<g>
		<path d="M497,240.999h-22.488V95.332c0-8.284-6.716-15-15-15s-15,6.716-15,15v145.667h-44.978V95.332c0-8.284-6.716-15-15-15
			h-16.066c-8.284,0-15,6.716-15,15v145.667H308.49V95.332c0-8.284-6.716-15-15-15s-15,6.716-15,15v145.667h-44.98V95.332
			c0-8.284-6.716-15-15-15s-15,6.716-15,15v145.667h-44.977V95.332c0-8.284-6.716-15-15-15h-16.066c-8.284,0-15,6.716-15,15v145.667
			H67.488V95.332c0-8.284-6.716-15-15-15s-15,6.716-15,15v145.667H15c-8.284,0-15,6.716-15,15s6.716,15,15,15h22.488v145.667
			c0,8.284,6.716,15,15,15s15-6.716,15-15V270.999h44.979v65.334c0,8.284,6.716,15,15,15h16.066c8.284,0,15-6.716,15-15v-65.334
			h44.977v65.334c0,8.284,6.716,15,15,15s15-6.716,15-15v-65.334h44.979v65.334c0,8.284,6.716,15,15,15s15-6.716,15-15v-65.334
			h44.978v65.334c0,8.284,6.716,15,15,15h16.066c8.284,0,15-6.716,15-15v-65.334h44.978v145.667c0,8.284,6.716,15,15,15
			s15-6.716,15-15V270.999H497c8.284,0,15-6.716,15-15S505.284,240.999,497,240.999z"/>
	</g>
</g>
<g>
	<g>
		<path d="M146.109,406.058c-2.799-2.79-6.659-4.39-10.609-4.39s-7.811,1.6-10.61,4.39c-2.79,2.79-4.39,6.66-4.39,10.61
			c0,3.95,1.6,7.81,4.39,10.6c2.8,2.8,6.66,4.4,10.61,4.4s7.81-1.601,10.609-4.4c2.79-2.79,4.391-6.66,4.391-10.6
			C150.5,412.718,148.899,408.848,146.109,406.058z"/>
	</g>
</g>
<g>
	<g>
		<path d="M226.439,406.058c-2.79-2.79-6.659-4.39-10.609-4.39c-3.94,0-7.811,1.6-10.601,4.39c-2.79,2.79-4.39,6.66-4.39,10.61
			c0,3.95,1.6,7.81,4.39,10.6c2.79,2.8,6.66,4.4,10.601,4.4c3.95,0,7.819-1.601,10.609-4.4c2.79-2.79,4.391-6.66,4.391-10.6
			C230.83,412.718,229.229,408.848,226.439,406.058z"/>
	</g>
</g>
<g>
	<g>
		<path d="M306.77,406.058c-2.791-2.79-6.661-4.39-10.6-4.39c-3.95,0-7.81,1.6-10.61,4.39c-2.79,2.8-4.39,6.66-4.39,10.61
			c0,3.939,1.6,7.81,4.39,10.6c2.79,2.8,6.66,4.4,10.61,4.4c3.95,0,7.81-1.601,10.6-4.4c2.8-2.79,4.4-6.66,4.4-10.6
			C311.17,412.718,309.569,408.848,306.77,406.058z"/>
	</g>
</g>
<g>
	<g>
		<path d="M387.109,406.058c-2.799-2.79-6.659-4.39-10.609-4.39s-7.81,1.6-10.61,4.39c-2.79,2.79-4.39,6.66-4.39,10.61
			c0,3.95,1.6,7.81,4.39,10.6c2.79,2.8,6.66,4.4,10.61,4.4c3.95,0,7.81-1.601,10.609-4.4c2.79-2.79,4.391-6.66,4.391-10.6
			C391.5,412.718,389.899,408.848,387.109,406.058z"/>
	</g>
</g>
<g>
</g>
<g>
</g>
<g>
</g>
<g>
</g>
<g>
</g>
<g>
</g>
<g>
</g>
<g>
</g>
<g>
</g>
<g>
</g>
<g>
</g>
<g>
</g>
<g>
</g>
<g>
</g>
<g>
</g>
</svg>
